<svg width="36" height="36" viewBox="0 0 36 36" fill="none" xmlns="http://www.w3.org/2000/svg">
<path fill-rule="evenodd" clip-rule="evenodd" d="M5 8.5C5 5.73858 7.23858 3.5 10 3.5H26C28.7614 3.5 31 5.73858 31 8.5V31.0677C31 32.2787 29.6391 32.9905 28.6444 32.2998L18.5704 25.3039C18.2274 25.0658 17.7726 25.0658 17.4296 25.3039L7.35559 32.2998C6.36093 32.9905 5 32.2787 5 31.0677V8.5ZM10 5.5C8.34315 5.5 7 6.84315 7 8.5V30.1118L16.2888 23.6612C17.3177 22.9467 18.6823 22.9467 19.7112 23.6612L29 30.1118V8.5C29 6.84315 27.6569 5.5 26 5.5H10Z" fill="#828282"/>
</svg>
