<svg width="34" height="34" viewBox="0 0 34 34" fill="none" xmlns="http://www.w3.org/2000/svg">
<path fill-rule="evenodd" clip-rule="evenodd" d="M0.875 20C0.875 17.7909 2.66586 16 4.875 16H9.75V20.875C9.75 23.0841 7.95914 24.875 5.75 24.875H4.875C2.66586 24.875 0.875 23.0841 0.875 20.875V20ZM4.875 18C3.77043 18 2.875 18.8954 2.875 20V20.875C2.875 21.9796 3.77043 22.875 4.875 22.875H5.75C6.85457 22.875 7.75 21.9796 7.75 20.875V18H4.875Z" fill="#14142B"/>
<path fill-rule="evenodd" clip-rule="evenodd" d="M10.5 28.25C10.5 26.0409 12.2909 24.25 14.5 24.25H19.375V29.125C19.375 31.3341 17.5841 33.125 15.375 33.125H14.5C12.2909 33.125 10.5 31.3341 10.5 29.125V28.25ZM14.5 26.25C13.3954 26.25 12.5 27.1454 12.5 28.25V29.125C12.5 30.2296 13.3954 31.125 14.5 31.125H15.375C16.4796 31.125 17.375 30.2296 17.375 29.125V26.25H14.5Z" fill="#14142B"/>
<path fill-rule="evenodd" clip-rule="evenodd" d="M24.25 25.5C24.25 23.2909 26.0409 21.5 28.25 21.5H33.125V26.375C33.125 28.5841 31.3341 30.375 29.125 30.375H28.25C26.0409 30.375 24.25 28.5841 24.25 26.375V25.5ZM28.25 23.5C27.1454 23.5 26.25 24.3954 26.25 25.5V26.375C26.25 27.4796 27.1454 28.375 28.25 28.375H29.125C30.2296 28.375 31.125 27.4796 31.125 26.375V23.5H28.25Z" fill="#14142B"/>
<path fill-rule="evenodd" clip-rule="evenodd" d="M32.4123 15.2078L18.6623 19.3328L18.0876 17.4172L31.8376 13.2922L32.4123 15.2078Z" fill="#14142B"/>
<path fill-rule="evenodd" clip-rule="evenodd" d="M16.1856 1.04694C16.4604 1.23297 16.625 1.54318 16.625 1.875V6C16.625 6.55229 16.1773 7 15.625 7C15.0727 7 14.625 6.55229 14.625 6V3.35204L9.75 5.30204V17C9.75 17.5523 9.30228 18 8.75 18C8.19772 18 7.75 17.5523 7.75 17V4.625C7.75 4.2161 7.99895 3.84839 8.37861 3.69653L15.2536 0.946528C15.5617 0.823292 15.9109 0.860907 16.1856 1.04694Z" fill="#14142B"/>
<path fill-rule="evenodd" clip-rule="evenodd" d="M32.7219 6.57272C32.9755 6.76141 33.125 7.0589 33.125 7.37501V22.5C33.125 23.0523 32.6773 23.5 32.125 23.5C31.5727 23.5 31.125 23.0523 31.125 22.5V8.71904L19.375 12.244V25.25C19.375 25.8023 18.9273 26.25 18.375 26.25C17.8227 26.25 17.375 25.8023 17.375 25.25V11.5C17.375 11.0584 17.6647 10.6691 18.0877 10.5422L31.8377 6.41718C32.1404 6.32635 32.4683 6.38402 32.7219 6.57272Z" fill="#14142B"/>
</svg>
