<svg width="34" height="34" viewBox="0 0 34 34" fill="none" xmlns="http://www.w3.org/2000/svg">
<path fill-rule="evenodd" clip-rule="evenodd" d="M17.0001 12.6667C14.6068 12.6667 12.6667 14.6068 12.6667 17C12.6667 19.3932 14.6068 21.3333 17.0001 21.3333C19.3933 21.3333 21.3334 19.3932 21.3334 17C21.3334 14.6068 19.3933 12.6667 17.0001 12.6667ZM10.6667 17C10.6667 13.5022 13.5023 10.6667 17.0001 10.6667C20.4979 10.6667 23.3334 13.5022 23.3334 17C23.3334 20.4978 20.4979 23.3333 17.0001 23.3333C13.5023 23.3333 10.6667 20.4978 10.6667 17Z" fill="#6E7191"/>
<path fill-rule="evenodd" clip-rule="evenodd" d="M14.4266 2.01558C15.5915 0.0716302 18.4085 0.07163 19.5733 2.01558L21.3404 4.96445C21.5669 5.34235 22.0139 5.52753 22.4413 5.42044L25.7759 4.58478C27.9742 4.0339 29.9661 6.02577 29.4152 8.22405L28.5795 11.5587C28.4725 11.9861 28.6576 12.4331 29.0355 12.6596L31.9844 14.4266C33.9284 15.5915 33.9284 18.4085 31.9844 19.5733L29.0355 21.3404C28.6576 21.5669 28.4725 22.0139 28.5795 22.4413L29.4152 25.7759C29.9661 27.9742 27.9742 29.9661 25.7759 29.4152L22.4413 28.5795C22.0139 28.4725 21.5669 28.6576 21.3404 29.0355L19.5733 31.9844C18.4085 33.9284 15.5915 33.9284 14.4266 31.9844L12.6596 29.0355C12.4331 28.6576 11.9861 28.4725 11.5587 28.5795L8.22404 29.4152C6.02577 29.9661 4.0339 27.9742 4.58478 25.7759L5.42044 22.4413C5.52753 22.0139 5.34235 21.5669 4.96445 21.3404L2.01558 19.5733C0.0716305 18.4085 0.0716296 15.5915 2.01558 14.4266L4.96445 12.6596C5.34235 12.4331 5.52753 11.9861 5.42044 11.5587L4.58478 8.22404C4.0339 6.02577 6.02577 4.0339 8.22404 4.58478L11.5587 5.42044C11.9861 5.52753 12.4331 5.34235 12.6596 4.96445L14.4266 2.01558ZM17.8578 3.0436C17.4695 2.39562 16.5305 2.39562 16.1422 3.0436L14.3751 5.99248C13.6958 7.12617 12.3546 7.68173 11.0726 7.36046L7.73788 6.52479C7.00512 6.34117 6.34117 7.00512 6.52479 7.73788L7.36046 11.0726C7.68173 12.3546 7.12617 13.6958 5.99248 14.3751L3.0436 16.1422C2.39562 16.5305 2.39562 17.4695 3.0436 17.8578L5.99248 19.6248C7.12617 20.3042 7.68173 21.6454 7.36046 22.9274L6.52479 26.2621C6.34117 26.9949 7.00512 27.6588 7.73788 27.4752L11.0726 26.6395C12.3546 26.3183 13.6958 26.8738 14.3751 28.0075L16.1422 30.9564C16.5305 31.6044 17.4695 31.6044 17.8578 30.9564L19.6248 28.0075C20.3042 26.8738 21.6454 26.3183 22.9274 26.6395L26.2621 27.4752C26.9949 27.6588 27.6588 26.9949 27.4752 26.2621L26.6395 22.9274C26.3183 21.6454 26.8738 20.3042 28.0075 19.6248L30.9564 17.8578C31.6044 17.4695 31.6044 16.5305 30.9564 16.1422L28.0075 14.3751C26.8738 13.6958 26.3183 12.3546 26.6395 11.0726L27.4752 7.73788C27.6588 7.00512 26.9949 6.34117 26.2621 6.52479L22.9274 7.36046C21.6454 7.68173 20.3042 7.12617 19.6248 5.99248L17.8578 3.0436Z" fill="#6E7191"/>
</svg>
