<svg width="34" height="34" viewBox="0 0 34 34" fill="none" xmlns="http://www.w3.org/2000/svg">
<path d="M15.2845 2.5296C16.0611 1.23363 17.9391 1.23363 18.7156 2.5296L20.4827 5.47847C20.9356 6.23427 21.8298 6.60464 22.6844 6.39046L26.0191 5.5548C27.4846 5.18754 28.8125 6.51545 28.4453 7.98097L27.6096 11.3156C27.3954 12.1703 27.7658 13.0645 28.5216 13.5174L31.4705 15.2844C32.7664 16.061 32.7664 17.939 31.4705 18.7156L28.5216 20.4826C27.7658 20.9355 27.3954 21.8297 27.6096 22.6844L28.4453 26.019C28.8125 27.4846 27.4846 28.8125 26.0191 28.4452L22.6844 27.6095C21.8298 27.3954 20.9356 27.7657 20.4827 28.5215L18.7156 31.4704C17.9391 32.7664 16.0611 32.7664 15.2845 31.4704L13.5174 28.5215C13.0646 27.7657 12.1704 27.3954 11.3157 27.6095L7.98105 28.4452C6.51553 28.8125 5.18762 27.4846 5.55487 26.019L6.39054 22.6844C6.60472 21.8297 6.23434 20.9355 5.47855 20.4826L2.52968 18.7156C1.23371 17.939 1.23371 16.061 2.52968 15.2844L5.47855 13.5174C6.23434 13.0645 6.60472 12.1703 6.39054 11.3156L5.55487 7.98097C5.18762 6.51545 6.51553 5.18754 7.98105 5.5548L11.3157 6.39046C12.1704 6.60464 13.0646 6.23427 13.5174 5.47847L15.2845 2.5296Z" stroke="#6E7191" stroke-width="2"/>
</svg>
